<?xml version="1.0" standalone="yes"?>

<svg version="1.1" viewBox="0.0 0.0 696.8871391076116 235.36482939632546" fill="none" stroke="none" stroke-linecap="square" stroke-miterlimit="10" xmlns="http://www.w3.org/2000/svg" xmlns:xlink="http://www.w3.org/1999/xlink"><clipPath id="p.0"><path d="m0 0l696.88715 0l0 235.36482l-696.88715 0l0 -235.36482z" clip-rule="nonzero"></path></clipPath><g clip-path="url(#p.0)"><path fill="#000000" fill-opacity="0.0" d="m0 0l696.88715 0l0 235.36482l-696.88715 0z" fill-rule="evenodd"></path><path fill="#000000" fill-opacity="0.4692" d="m102.92914 49.02952l0 0c0 -18.380869 14.900642 -33.28151 33.28151 -33.28151l446.4134 0c8.826782 0 17.292053 3.5064335 23.53357 9.747927c6.241516 6.241493 9.747925 14.706776 9.747925 23.53358l0 133.12204c0 18.38086 -14.900635 33.281494 -33.281494 33.281494l-446.4134 0l0 0c-18.380867 0 -33.28151 -14.900635 -33.28151 -33.281494z" fill-rule="evenodd"></path><path fill="#ffffff" d="m185.60193 145.18741q-5.921875 -0.15625 -8.484375 -2.90625q-2.5625 -2.765625 -2.5625 -8.765625l0 -50.0l6.875 -1.203125l0 51.359375q0 2.796875 1.125 4.046875q1.125 1.234375 3.921875 1.71875l-0.875 5.75zm35.518112 -21.75q0 4.953125 -0.890625 9.0q-0.875 4.03125 -2.671875 6.921875q-1.796875 2.875 -4.5625 4.484375q-2.765625 1.59375 -6.515625 1.59375q-3.765625 0 -6.5625 -1.59375q-2.796875 -1.609375 -4.609375 -4.484375q-1.796875 -2.890625 -2.671875 -6.921875q-0.875 -4.046875 -0.875 -9.0q0 -4.890625 0.875 -8.96875q0.875 -4.078125 2.671875 -7.0q1.8125 -2.921875 4.609375 -4.515625q2.796875 -1.609375 6.5625 -1.609375q3.75 0 6.515625 1.609375q2.765625 1.59375 4.5625 4.515625q1.796875 2.921875 2.671875 7.0q0.890625 4.078125 0.890625 8.96875zm-7.203125 0q0 -3.53125 -0.40625 -6.4375q-0.390625 -2.921875 -1.28125 -5.046875q-0.875 -2.125 -2.3125 -3.28125q-1.4375 -1.15625 -3.4375 -1.15625q-2.078125 0 -3.484375 1.15625q-1.390625 1.15625 -2.3125 3.28125q-0.921875 2.125 -1.328125 5.046875q-0.390625 2.90625 -0.390625 6.4375q0 3.515625 0.390625 6.4375q0.40625 2.921875 1.328125 5.0q0.921875 2.078125 2.3125 3.234375q1.40625 1.15625 3.484375 1.15625q2.0 0 3.4375 -1.15625q1.4375 -1.15625 2.3125 -3.234375q0.890625 -2.078125 1.28125 -5.0q0.40625 -2.921875 0.40625 -6.4375zm42.243088 19.75q0 4.484375 -1.171875 7.5625q-1.15625 3.078125 -3.15625 5.0q-2.0 1.921875 -4.6875 2.796875q-2.671875 0.890625 -5.703125 0.890625q-2.5625 0 -5.125 -0.5625q-2.5625 -0.5625 -4.71875 -1.6875l1.4375 -5.75q1.4375 0.796875 3.515625 1.4375q2.09375 0.640625 4.328125 0.640625q3.921875 0 6.15625 -2.25q2.234375 -2.234375 2.234375 -7.671875l0 -2.0q-1.265625 0.5625 -2.71875 0.921875q-1.4375 0.359375 -3.28125 0.359375q-7.515625 0 -11.0 -5.15625q-3.46875 -5.171875 -3.46875 -14.609375q0 -5.03125 0.921875 -9.078125q0.921875 -4.046875 2.875 -6.875q1.953125 -2.84375 5.078125 -4.328125q3.125 -1.484375 7.59375 -1.484375q2.96875 0 5.796875 0.609375q2.84375 0.59375 5.09375 1.5625l0 39.671875zm-6.890625 -35.203125q-1.109375 -0.3125 -2.15625 -0.421875q-1.03125 -0.125 -1.921875 -0.125q-4.796875 0 -7.0 3.6875q-2.1875 3.671875 -2.1875 11.984375q0 7.515625 2.15625 10.609375q2.15625 3.078125 6.15625 3.078125q1.359375 0 2.59375 -0.3125q1.25 -0.328125 2.359375 -0.890625l0 -27.609375zm26.172485 36.40625l-6.890625 0l0 -42.0l6.890625 0l0 42.0zm-3.4375 -49.4375q-1.84375 0 -3.171875 -1.234375q-1.3125 -1.25 -1.3125 -3.328125q0 -2.078125 1.3125 -3.3125q1.328125 -1.25 3.171875 -1.25q1.828125 0 3.140625 1.25q1.328125 1.234375 1.328125 3.3125q0 2.078125 -1.328125 3.328125q-1.3125 1.234375 -3.140625 1.234375zm15.90686 8.640625q2.96875 -0.890625 6.40625 -1.484375q3.4375 -0.59375 6.3125 -0.59375q3.125 0 5.6875 0.84375q2.5625 0.828125 4.359375 2.828125q1.796875 2.0 2.796875 5.40625q1.0 3.390625 1.0 8.4375l0 25.359375l-6.875 0l0 -24.796875q0 -6.25 -1.609375 -9.125q-1.59375 -2.875 -6.0 -2.875q-2.3125 0 -5.1875 0.796875l0 36.0l-6.890625 0l0 -40.796875z" fill-rule="nonzero"></path><path fill="#a6d785" d="m483.78168 113.49309l48.283447 0l0 32.818893l-48.283447 0z" fill-rule="evenodd"></path><path fill="#a6d785" d="m478.9462 110.04462l28.83902 -25.385826l29.113708 25.385826z" fill-rule="evenodd"></path></g></svg>

