<?xml version="1.0" standalone="yes"?>

<svg version="1.1" viewBox="0.0 0.0 713.0 235.0" fill="none" stroke="none" stroke-linecap="square" stroke-miterlimit="10" xmlns="http://www.w3.org/2000/svg" xmlns:xlink="http://www.w3.org/1999/xlink"><clipPath id="p.0"><path d="m0 0l713.0 0l0 235.0l-713.0 0l0 -235.0z" clip-rule="nonzero"></path></clipPath><g clip-path="url(#p.0)"><path fill="#000000" fill-opacity="0.0" d="m0 0l713.0 0l0 235.0l-713.0 0z" fill-rule="evenodd"></path><path fill="#000000" fill-opacity="0.0" d="m0 86.03674l713.0079 0l0 77.82677l-713.0079 0z" fill-rule="evenodd"></path><path fill="#ffffff" d="m308.67517 135.41362l0 5.703125l-16.828125 0l0 -35.265625l6.328125 0l0 29.5625l10.5 0zm31.18982 -20.5625q2.109375 -0.890625 3.59375 -1.21875q1.5 -0.34375 3.25 -0.34375q3.765625 0 6.171875 2.390625q2.40625 2.375 2.40625 7.203125l0 17.46875q-2.515625 0.703125 -4.390625 1.0q-1.859375 0.296875 -3.671875 0.296875q-1.859375 0 -3.546875 -0.484375q-1.6875 -0.484375 -2.984375 -1.578125q-1.28125 -1.09375 -2.046875 -2.765625q-0.765625 -1.671875 -0.765625 -4.0q0 -2.171875 0.671875 -3.8125q0.6875 -1.65625 1.890625 -2.78125q1.21875 -1.140625 2.828125 -1.703125q1.625 -0.578125 3.484375 -0.578125q1.671875 0 2.5 0.171875l0 -1.09375q0 -2.375 -0.796875 -3.171875q-0.78125 -0.8125 -2.375 -0.8125q-1.0 0 -1.890625 0.203125q-0.875 0.1875 -2.984375 1.078125l-1.34375 -5.46875zm4.140625 17.921875q0 1.765625 0.84375 2.546875q0.859375 0.765625 2.578125 0.765625q1.1875 0 1.828125 -0.140625l0 -6.4375q-0.578125 -0.15625 -1.828125 -0.15625q-0.796875 0 -1.4375 0.171875q-0.640625 0.171875 -1.0625 0.53125q-0.421875 0.359375 -0.671875 0.984375q-0.25 0.625 -0.25 1.734375zm16.488312 -17.890625q2.53125 -0.75 4.65625 -1.125q2.140625 -0.375 3.96875 -0.375q2.03125 0 3.765625 0.578125q1.734375 0.578125 2.984375 1.96875q1.25 1.375 1.90625 3.59375q0.65625 2.21875 0.65625 5.375l0 16.21875l-6.140625 0l0 -15.875q0 -3.484375 -0.765625 -4.84375q-0.75 -1.359375 -2.796875 -1.359375q-1.25 0 -2.109375 0.234375l0 21.84375l-6.125 0l0 -26.234375zm29.261047 26.234375l-6.125 0l0 -27.203125l6.125 0l0 27.203125zm-3.0625 -29.65625q-1.515625 0 -2.609375 -1.03125q-1.078125 -1.046875 -1.078125 -2.71875q0 -1.65625 1.078125 -2.6875q1.09375 -1.046875 2.609375 -1.046875q1.484375 0 2.578125 1.03125q1.109375 1.03125 1.109375 2.703125q0 1.6875 -1.109375 2.71875q-1.09375 1.03125 -2.578125 1.03125zm16.897278 -9.59375q1.53125 0 2.6875 0.328125q1.171875 0.3125 2.65625 1.046875l-1.375 5.234375q-1.671875 -0.8125 -2.28125 -0.953125q-0.609375 -0.15625 -1.3125 -0.15625q-0.84375 0 -1.328125 0.265625q-0.484375 0.265625 -0.765625 0.734375q-0.265625 0.453125 -0.390625 1.265625q-0.109375 0.796875 -0.109375 1.78125l0 2.5l6.484375 0l0 5.5625l-6.484375 0l0 21.640625l-6.125 0l0 -29.703125q0 -4.4375 2.078125 -6.984375q2.09375 -2.5625 6.265625 -2.5625zm13.125519 30.9375q0.4375 -2.96875 1.578125 -7.796875q1.15625 -4.828125 2.359375 -11.09375l6.15625 0q-1.0 4.71875 -1.84375 8.15625q-0.828125 3.421875 -1.734375 6.609375q-0.890625 3.171875 -1.78125 6.0q-0.875 2.828125 -1.65625 5.140625q-0.921875 2.71875 -1.8125 4.65625q-0.875 1.953125 -1.984375 3.21875q-1.09375 1.265625 -2.453125 1.859375q-1.359375 0.59375 -3.140625 0.59375q-0.984375 0 -1.953125 -0.25q-0.953125 -0.234375 -2.375 -0.8125l1.21875 -5.375q2.15625 0.921875 3.0625 0.921875q0.921875 0 1.578125 -0.78125q0.671875 -0.765625 1.4375 -2.625l0.328125 -0.84375q-0.796875 -2.15625 -1.75 -5.21875q-0.9375 -3.0625 -1.828125 -6.390625q-0.875 -3.328125 -1.703125 -6.828125q-0.828125 -3.5 -1.734375 -8.03125l6.4375 0q0.515625 3.09375 1.046875 5.765625q0.53125 2.671875 1.125 5.34375q0.59375 2.671875 1.203125 5.171875q0.625 2.5 0.21875 2.609375z" fill-rule="nonzero"></path><path fill="#a6d785" d="m311.00134 127.38949l20.75592 0l0 13.070869l-20.75592 0z" fill-rule="evenodd"></path><path fill="#a6d785" d="m307.7638 127.3937l13.47818 -17.952751l13.7659 17.952751z" fill-rule="evenodd"></path></g></svg>

